# xmcd CD database file
#
# Track frame offsets:
#	150
#	16610
#	30880
#	45475
#	60675
#	75722
#	91245
#	107307
#	126997
#	147472
#	162842
#	172217
#	187225
#	206515
#
# Disc length: 3036 seconds
#
# Revision: 1
# Processed by: cddbd v1.4PL0 Copyright (c) Steve Scherf et al.
# Submitted via: CDex 1.40Beta8
#
DISCID=b30bda0e
DTITLE=Edson Otto - Prece ao Minuano
DYEAR=1993
DGENRE=Country
TTITLE0=Prece ao Minuano
TTITLE1=Cevando Mate
TTITLE2=Santana Velha
TTITLE3=Linha da Vida
TTITLE4=Morena Rosa
TTITLE5=Prenda Minha
TTITLE6=O Roubo da Gaita Velha
TTITLE7=Esquilador
TTITLE8=Cantiga de Ronda
TTITLE9=Menina Lavadeira
TTITLE10=Resto de Baile
TTITLE11=Aguateiro
TTITLE12=Heranca
TTITLE13=Nesga de Noite
EXTD=YEAR: 1993 ID3G: 2
EXTT0=
EXTT1=
EXTT2=
EXTT3=
EXTT4=
EXTT5=
EXTT6=
EXTT7=
EXTT8=
EXTT9=
EXTT10=
EXTT11=
EXTT12=
EXTT13=
PLAYORDER=
